<?xml version="1.0" encoding="utf-8"?>
<!-- Generator: Adobe Illustrator 21.0.0, SVG Export Plug-In . SVG Version: 6.00 Build 0)  -->
<svg version="1.1" id="Layer_1" xmlns="http://www.w3.org/2000/svg" xmlns:xlink="http://www.w3.org/1999/xlink" x="0px" y="0px"
	 viewBox="0 0 1000 429.1" style="enable-background:new 0 0 1000 429.1;" xml:space="preserve">
<style type="text/css">
	.st0{fill:none;}
	.st1{fill:#2EB357;}
	.st2{fill:#231F20;}
	.st3{fill:#FEF100;}
	.st4{fill:#242021;}
	.st5{fill:#232020;}
	.st6{fill:#010101;}
	.st7{fill:#242121;}
	.st8{fill:#282525;}
	.st9{fill:#2B2827;}
	.st10{fill:#0A0A0A;}
	.st11{fill:#2E2B29;}
	.st12{fill:#FEFEFE;}
	.st13{fill:#FEF101;}
	.st14{fill:#252121;}
	.st15{fill:#EC1B2D;}
	.st16{fill:#F5F5F5;}
	.st17{fill:#FCFCFC;}
	.st18{fill:#EAEAEA;}
	.st19{fill:#E8E8E8;}
	.st20{fill:#FBFBFB;}
</style>
<g>
	<path class="st0" d="M-74.7,361.3l-1.6-0.1c0.1-1.1,0.1-1.9,0-2.2c-0.1-0.4-0.5-0.9-1-1.4c-0.6-0.6-2.1-1.9-4.6-4.1l-8.5-7.4
		l-7.6,3.6c-0.6,0.3-1.8,1-3.5,1.9c-1.7,1-3,1.8-3.9,2.6c-0.4,0.3-0.6,0.6-0.7,0.9c-0.1,0.3-0.3,1.2-0.4,2.7l-1.4-0.1l-0.5-7.1
		c0.5-0.6,1.1-1.1,1.8-1.6c1-0.7,2.8-1.6,5.3-2.7l7.4-3.4c-6.6-5.6-10.2-8.4-10.8-8.7l-1.9-0.2c0.2-1.7,0.4-2.9,0.4-3.6
		c0.1-0.6,0.1-1.6,0.2-2.9l1.5,0.1c0,1,0,1.6,0,1.9c0,0.3,0.1,0.5,0.2,0.7c0.2,0.3,0.6,0.8,1.2,1.4c0.6,0.6,1.9,1.8,3.8,3.5
		c1.9,1.7,3.7,3.2,5.3,4.7l2.3,2l13.9-7c1.8-0.9,3-1.6,3.6-2.1c0.3-0.2,0.5-0.5,0.6-0.7c0.1-0.3,0.2-1,0.3-2l1.6,0.1
		c-0.2,1.7-0.4,2.9-0.4,3.5c-0.1,0.7-0.1,1.9-0.2,3.6c-1.5,0.8-3,1.6-4.5,2.3l-11.4,5.4l4.1,3.4c4.2,3.4,7.1,5.5,8.5,6.3l1.7,0.2
		c-0.2,1.7-0.3,2.8-0.4,3.4C-74.5,358.6-74.6,359.6-74.7,361.3z"/>
	<path class="st0" d="M-73.6,307.5l1.7,0.9c0.6,1.2,1,2,1.2,2.6c0.3,0.8,0.5,1.7,0.6,2.7c0.1,1,0.2,2,0.1,3.1
		c-0.2,2.1-0.8,4-1.8,5.6c-1,1.6-2.5,2.9-4.3,3.7c-1.8,0.8-3.9,1.1-6.3,0.9c-1.8-0.2-3.5-0.6-4.9-1.2c-1.4-0.6-2.5-1.3-3.1-2
		c-0.5-0.5-1-1.3-1.6-2.3c-0.6-1-1-2.1-1.3-3.1c-0.4-1.3-0.6-2.7-0.4-4.2c0.2-1.8,0.7-3.4,1.7-4.8c0.9-1.4,2.2-2.3,3.6-2.9
		c1.5-0.5,3.1-0.7,4.9-0.6c0.5,0,1,0.1,1.6,0.3c0.1,1.2,0.2,2.2,0.2,3.1c0,1.7-0.1,3.5-0.3,5.2l-0.7,7.7c2.3,0.2,4.2-0.1,5.7-0.7
		c1.5-0.6,2.6-1.6,3.4-2.9c0.8-1.3,1.3-2.6,1.4-4.1c0.1-1,0-2-0.2-3c-0.2-1-0.7-2.3-1.4-3.8L-73.6,307.5z M-84.8,322.1
		c0.1-0.4,0.2-1.3,0.4-2.5c0.3-2.4,0.5-4,0.6-4.9c0.2-2.1,0.3-3.5,0.3-4.2c-0.4,0-0.7-0.1-0.9-0.1c-2.5-0.2-4.4,0.1-5.7,1
		c-1.3,0.9-2,2.2-2.2,4c-0.2,1.8,0.4,3.3,1.6,4.6C-89.7,321.1-87.6,321.8-84.8,322.1z"/>
	<path class="st0" d="M-68.5,295.2l-3.4,0.7l-7.6,1.6c-2.2,0.4-4.3,0.9-6.4,1.4c-2.1,0.5-3.3,0.8-3.6,1c-0.3,0.2-0.6,0.4-0.7,0.7
		c-0.2,0.3-0.3,1.1-0.6,2.3l-1.4-0.1c0.3-1.8,0.5-3.6,0.7-5.7c0.2-2.1,0.3-4.2,0.4-6l1.4,0.1c-0.1,1.5-0.1,2.5-0.1,2.9
		c0,0.3,0.1,0.5,0.3,0.7c0.2,0.2,0.3,0.2,0.6,0.3c0.4,0,1.4-0.1,3-0.4l8-1.5c1.3-0.3,2.8-0.6,4.3-1l-4-2.2l-7.6-4.3
		c-1.8-1-3.6-2-5.5-2.9l0.1-1.2c3-0.8,5-1.3,6-1.6l7.2-2.1c2.4-0.7,4.3-1.3,5.5-1.7l-4.6-2.2c-2.9-1.4-5.5-2.6-7.6-3.4
		c-1.1-0.5-2-0.7-2.4-0.8c-0.5,0-0.8,0.1-1,0.4c-0.2,0.3-0.4,1.3-0.6,3.1l-1.4-0.1c0.3-2.4,0.5-4.1,0.6-5c0.1-1.1,0.2-2.7,0.2-4.6
		l1.4,0.1c-0.1,0.9,0,1.6,0.1,1.9c0.1,0.3,0.4,0.6,0.7,0.9c0.5,0.5,1.7,1.2,3.7,2.3l5.8,3.1l2.6,1.3c0.5,0.3,2.1,1,4.7,2.3
		c1.1,0.6,2.1,1,2.9,1.3L-67,279l-3.1,0.9l-14.3,4.3l4.8,2.8l5.8,3.3c1.3,0.8,2.5,1.4,3.4,1.8l2.1,1L-68.5,295.2z"/>
	<path class="st0" d="M-76.9,261.8c-3.6-0.3-6.4-1.7-8.5-4.2c-2.1-2.5-2.9-5.5-2.6-9.1c0.3-3.4,1.6-6,3.9-7.9
		c2.3-1.9,5.1-2.7,8.5-2.4c2.3,0.2,4.4,0.9,6.3,2.2c1.8,1.3,3.2,2.9,4.1,5c0.9,2.1,1.3,4.3,1.1,6.7c-0.2,1.9-0.6,3.4-1.4,4.6
		c-0.7,1.2-1.6,2.2-2.6,2.9c-1,0.7-2,1.2-3.1,1.6C-73,261.8-74.9,262-76.9,261.8z M-78.3,257.1c2,0.2,4,0,6.1-0.4
		c2.1-0.5,3.7-1.3,4.7-2.5c1.1-1.2,1.6-2.5,1.8-3.9c0.2-1.9-0.4-3.5-1.8-4.9c-1.4-1.4-3.6-2.2-6.6-2.5c-2.6-0.2-4.8-0.1-6.7,0.5
		c-1.9,0.6-3.3,1.4-4.2,2.5c-0.9,1.1-1.4,2.3-1.5,3.7c-0.2,2,0.4,3.6,1.7,5C-83.5,256-81.3,256.8-78.3,257.1z"/>
	<path class="st0" d="M-63.5,236.4l-1.4-0.1c0.1-1.8,0.2-2.8,0.2-3c0-0.3-0.1-0.5-0.2-0.6c-0.1-0.1-0.2-0.3-0.4-0.4
		c-0.4-0.2-0.9-0.3-1.7-0.4c-4.3-0.5-6.5-0.7-6.7-0.7l-2.9-0.3c-1.3-0.1-2.7-0.2-4.1-0.3c-0.9-0.1-1.5,0-1.7,0.1
		c-0.2,0.1-0.3,0.3-0.4,0.5c-0.1,0.3-0.2,1.3-0.4,3.1l-1.4-0.1c-0.2-3.3-0.5-5.7-1.1-7.3c-0.1-0.3-0.2-0.6-0.2-0.7
		c0-0.1,0.1-0.2,0.1-0.3s0.2-0.1,0.4-0.1c0.1,0,0.2,0,0.4,0.1c1,0.2,2.5,0.4,4.5,0.6c-0.8-0.8-1.5-1.5-2.3-2.2s-1.3-1.2-1.5-1.5
		c-0.4-0.5-0.7-1.1-0.8-1.8c-0.2-0.6-0.3-1.3-0.2-2c0.1-0.7,0.3-1.3,0.6-2l0.3-0.1c2.1,0.4,4,0.7,5.6,0.9l-0.1,1.1
		c-0.8,0.3-1.4,0.7-1.8,1.1c-0.4,0.5-0.6,1.1-0.7,1.8c-0.1,1.2,0.3,2.3,1.2,3.3c0.9,1,2.4,1.5,4.5,1.7l2.5,0.2
		c1.1,0.1,3,0.2,5.8,0.4c1,0.1,1.6,0.1,1.9,0c0.3,0,0.5-0.1,0.6-0.2c0.1-0.1,0.2-0.3,0.3-0.5c0.2-0.5,0.4-1.8,0.8-3.9l1.4,0.1
		c-0.4,2.8-0.6,5.2-0.8,7.2C-63.3,232.5-63.4,234.5-63.5,236.4z"/>
	<path class="st0" d="M-61.7,216.9l-1.4-0.1l0.2-2.3c0-0.4,0-0.6-0.1-0.8c-0.1-0.2-0.2-0.3-0.4-0.5c-0.3-0.2-0.9-0.4-1.7-0.5
		c-0.2,0-2.5-0.3-6.9-0.8l-10-0.9c-2.7-0.2-5.4-0.4-8.3-0.6c-1.9-0.1-3-0.1-3.2,0c-0.2,0.1-0.3,0.2-0.4,0.4
		c-0.1,0.2-0.3,1.3-0.5,3.3l-1.4-0.1c-0.1-3.7-0.5-6.2-1-7.7c-0.1-0.2-0.1-0.4-0.1-0.5s0.1-0.2,0.1-0.3c0.1-0.1,0.2-0.1,0.3-0.1
		c0.1,0,0.3,0,0.5,0.1l0.8,0.1c2.9,0.3,5.3,0.6,7.3,0.8l3.7,0.4l12.5,1.1c4.2,0.3,6.4,0.5,6.8,0.5c0.8,0.1,1.4,0,1.8-0.1
		c0.1-0.1,0.3-0.1,0.4-0.3c0.1-0.1,0.2-0.3,0.3-0.6c0-0.1,0.1-1,0.3-2.7l1.4,0.1c-0.3,2.2-0.5,4.1-0.7,5.7
		C-61.5,212.2-61.6,214.3-61.7,216.9z"/>
	<path class="st0" d="M-62.4,182.1l1.7,0.9c0.6,1.2,1,2,1.2,2.6c0.3,0.8,0.5,1.7,0.6,2.7c0.1,1,0.2,2,0.1,3.1
		c-0.2,2.1-0.8,4-1.8,5.6c-1,1.6-2.5,2.9-4.3,3.7c-1.8,0.8-3.9,1.1-6.3,0.9c-1.8-0.2-3.5-0.6-4.9-1.2c-1.4-0.6-2.5-1.3-3.1-2
		c-0.5-0.5-1-1.3-1.6-2.3c-0.6-1-1-2.1-1.3-3.1c-0.4-1.3-0.6-2.7-0.4-4.2c0.2-1.8,0.7-3.4,1.7-4.8c0.9-1.4,2.2-2.3,3.6-2.9
		c1.5-0.5,3.1-0.7,4.9-0.6c0.4,0,1,0.1,1.6,0.3c0.1,1.2,0.2,2.2,0.2,3.1c0,1.7-0.1,3.5-0.3,5.2l-0.7,7.7c2.3,0.2,4.2-0.1,5.7-0.7
		c1.5-0.6,2.6-1.6,3.4-2.9c0.8-1.3,1.3-2.6,1.4-4.1c0.1-1,0-2-0.2-3c-0.2-1-0.7-2.3-1.4-3.8L-62.4,182.1z M-73.6,196.7
		c0.1-0.4,0.2-1.3,0.4-2.5c0.3-2.4,0.5-4,0.6-4.9c0.2-2.1,0.3-3.5,0.3-4.2c-0.4,0-0.7-0.1-0.9-0.1c-2.5-0.2-4.4,0.1-5.7,1
		c-1.3,0.9-2,2.2-2.2,4c-0.2,1.8,0.4,3.3,1.6,4.6C-78.4,195.7-76.4,196.4-73.6,196.7z"/>
	<path class="st0" d="M-58,177c-2-0.4-3.3-0.6-3.8-0.7c-3.5-0.4-5.5-0.6-6.1-0.7l-10.7-1c-2.7-0.2-5.4-0.4-8.3-0.6
		c-1.9-0.1-3-0.1-3.2,0c-0.2,0.1-0.3,0.2-0.4,0.4c-0.1,0.2-0.3,1.3-0.5,3.3l-1.4-0.1c-0.1-3.7-0.5-6.2-1-7.7
		c-0.1-0.2-0.1-0.4-0.1-0.5c0-0.1,0.1-0.2,0.1-0.3c0.1-0.1,0.2-0.1,0.3-0.1c0.1,0,0.3,0,0.5,0.1l0.8,0.1c2.9,0.3,5.3,0.6,7.3,0.8
		l3.7,0.4l4.8,0.4l-2.9-3.6c-0.3-0.5-0.6-1.2-0.9-2.2c-0.3-1-0.3-2.1-0.2-3.2c0.2-1.8,0.7-3.3,1.7-4.6c0.9-1.3,2.2-2.2,3.8-2.8
		c1.6-0.6,3.3-0.8,5.1-0.6c1.4,0.1,2.7,0.5,4,1c1.2,0.5,2.3,1.2,3.2,1.9c0.7,0.5,1.2,1,1.4,1.4l2.2,3.7c0.9,1.5,1.5,2.7,1.7,3.5
		c0.2,0.8,0.3,1.9,0.2,3.1c-0.1,1.1-0.3,2.1-0.7,2.9c-0.4,0.9-1,1.8-1.8,2.8l1.7,2.1L-58,177z M-73.1,171.2l9,0.8
		c0.8,0.1,1.3,0.1,1.6,0c0.2-0.1,0.6-0.3,1-0.7c0.6-0.6,1.1-1.4,1.6-2.2c0.4-0.9,0.7-1.8,0.8-2.8c0.2-2.3-0.5-4.2-2.2-5.6
		c-1.7-1.4-3.8-2.2-6.5-2.5c-1.9-0.2-3.5,0-4.8,0.5c-1.3,0.5-2.3,1.2-3.1,2.2c-0.7,1-1.1,2.1-1.3,3.4c-0.1,1.5,0.2,2.9,0.9,4.2
		C-75.4,169.7-74.4,170.6-73.1,171.2z"/>
	<path class="st0" d="M-75.7,150l-1.4-0.1c-0.1-3.1-0.5-5.8-1.3-8l0.4-0.5c3.4,0.4,6,0.7,7.8,0.9l4.4,0.4c4.2,0.3,6.4,0.4,6.8,0.5
		c0.8,0.1,1.4,0,1.8-0.1c0.2-0.1,0.3-0.2,0.4-0.3c0.1-0.1,0.2-0.3,0.3-0.6c0-0.1,0.1-1,0.3-2.7l1.4,0.1c-0.3,2.4-0.6,4.4-0.7,5.8
		c-0.1,1.3-0.2,3.4-0.4,6.3l-1.4-0.1l0.2-2.3c0-0.3,0-0.6-0.1-0.8c-0.1-0.2-0.2-0.3-0.4-0.5c-0.3-0.2-0.9-0.4-1.7-0.5
		c-0.2,0-2.5-0.3-6.9-0.7l-4.2-0.4c-2.4-0.2-3.8-0.3-4.3-0.1c-0.3,0.1-0.4,0.2-0.6,0.5C-75.3,147.1-75.5,148.1-75.7,150z
		 M-89.2,142.9c0.1-0.8,0.4-1.4,1-1.8c0.6-0.5,1.2-0.7,2-0.6c0.7,0.1,1.3,0.4,1.8,1c0.5,0.6,0.7,1.2,0.6,2c-0.1,0.8-0.4,1.4-1,1.9
		c-0.6,0.5-1.2,0.7-2,0.6c-0.8-0.1-1.4-0.4-1.9-1C-89.1,144.3-89.3,143.6-89.2,142.9z"/>
</g>
<path class="st1" d="M252.3,397.2c0.2-2.1,2.4-1.2,3.3-2.4c6.7-1.5,12.5-4.5,16.6-10.3c2.2-2.8,0.9-6,1.2-9c0.1-1-1.2-0.6-1.7-1.2
	c0.7-1.2,0-2.5,0.4-3.8c0.7-6.6,0.3-13.2,0.2-19.8c-0.1-1.5,0.4-2.9,1-4.3c0-10.3,0.1-20.6,0.1-30.9c0-40.5,0-81,0-121.5
	c0-1.3,0.4-2.6-0.5-3.8c-0.2-1.3-0.7-2.6-0.5-4c0.2-3.6,0-7.2,0.2-10.7c0.1-2.4-0.5-4.2-2.9-5.1c-0.5-0.8,0-1.2,0.6-1.3
	c1.2-0.2,1.2-1.2,1.4-2c-3.6-4.9-7.4-9.6-12.4-13.1c-2-3.2-5.3-5.2-7.5-8.3c-1.8-1.8-3.2-4-5.1-5.6c-3.4-2.9-4.1-6.5-3.7-10.6
	c0.3-3.3,0.8-4.1,4.2-4.1c6.2-0.1,12.5,0,18.7,0c1.3,0,2.6,0.1,3.9-0.4c1.6-0.3,3.2,0,4.6,0.8c7.9,0.7,15.8,0.7,23.6,0.2
	c8.8-0.6,15.7,1.9,22.5,7.7c15.7,13.3,32.1,25.7,48.2,38.4c-0.1,0.9-0.7,0.9-1.2,1.1c-4.2,2.4-5.1,6.8-1.9,10.5
	c8.1,9.5,15,19.9,21.5,30.6c1.5,2.5,3.4,4.4,6.5,4.1c3.3-0.3,5.2-2.5,5.8-5.5c0.4-2.1,1.4-1.9,2.9-1.5c6.4,1.6,12.8,3,19.3,3.8
	c2.3,0.3,3.5,2.3,5.5,2.8c1.2-0.1,1.8,0.9,2.6,1.5c0.6,0.7,1.3,1.3,1.3,2.3c-11.5,0.2-23,0.5-34.4,0.7c-8.6,0.1-17.3,0.3-25.9,0.2
	c-2,0-3,0.4-2.9,2.7c0.2,3.7,0.1,7.4,0,11.2c-0.1,1.9,0.6,2.4,2.4,2.4c4.1,0,8.1,0.6,11.7,2.6c1.6,0.9,3,1.9,3,4
	c-0.1,12.3-0.1,24.5-0.2,36.8c-2,0.3-3.1-1.3-4.4-2.3c-4.6-3.5-8.8-7.4-13.7-10.6c-0.8-0.8-1.7-1.5-2.6-2.2
	c-16.6-13.5-33.3-26.7-49.8-39.9c-1.2,0.4-1,1.2-1,1.8c-0.2,10.3-0.8,20.6-0.7,30.9c0.2,17.7,0,35.5,0.1,53.2c0,1.3,0.1,2.6,0.2,3.9
	c-0.4,20.4-0.1,40.8-0.1,61.2c0,5.4,2.9,9,7.6,11.3c1.2,0.7,2.4,1.4,3.1,2.7c3.2,2,6.9,2.6,10.6,3c1.8,0.2,2.1,0.9,2,2.4
	c-0.1,3.3,1,7.5-0.6,9.5c-1.7,2.1-6.1,0.6-9.4,0.7c-9.2,0.1-18.4,0-27.5,0c-1.3,0-2.6-0.3-3.8,0.6c-2,0-3.9,0.8-5.9,0.5
	c-9.9,0.2-19.8,0.1-29.7,0.1c-7.6,0-7.7-0.1-7.7-7.6C251.1,399.7,251.4,398.4,252.3,397.2z"/>
<path class="st1" d="M559.5,403.1c-6.2-0.7-12.5-0.4-18.7-0.2c-3.8,0.1-6.8-0.9-9.8-3.3c-18.7-15.2-37.5-30.2-56.4-45.2
	c-2.2-1.7-3-2.8-0.5-5.1c4.9-4.5,4.7-4.6,0.5-9.6c-5.5-6.4-11-12.8-16.3-19.3c-1.4-1.7-2.8-2.4-5-2.3c-6.3,0.1-12.7-0.1-19.1,0.1
	c-3.4,0.1-6.1-0.7-8.6-3.1c-1.4-1.3-3-2.4-5.2-4.2c2.1,0,3.2,0,4.4,0c11,0,21.9,0,32.9,0c11.2,0,19-5.3,22.1-16
	c3.8-13.6,2.3-26.3-8.6-36.6c-2.2-2.1,0.3-3.2,0.6-4.7c1.6-0.5,2.3,0.9,3.3,1.6c2,1.4,3.8,3.2,6,4.5c0.8,0.6,1.6,1.2,2.4,1.9
	c14,11.2,28.1,22.3,42.2,33.5c1.4,1.1,2.9,3,4.9,2.1c2.1-1,1.1-3.3,1.1-5.1c0.1-8.5-0.3-17.1-0.5-25.6c-0.3-13.8-0.3-27.6-0.1-41.4
	c0-1.9,0-3.7-0.2-5.6c0-1.5,0.3-3,0.1-4.5c0-21.7,0-43.5,0-65.2c0-5.2-1.5-9.5-6.4-11.9c-1.1-0.7-2.2-1.4-2.6-2.7
	c-2.8-1.6-6-2.1-9.1-2.3c-3.9-0.2-1.7-3-2.1-4.6c-0.5-1.8,0.5-2.5,2.4-2.4c7.1,0.1,14.2,0,21.3,0c1.1,0,2.2-0.2,3.3-0.3
	c1.5-0.8,3.1-1.1,4.8-0.8c1.2,0.4,2.4,0.4,3.6,0.4c14.2,0,28.4,0,42.6,0c4,0,5.1,1.4,4.8,5.2c-0.2,2.3-1.6,3.2-3.6,3.5
	c-3.9,0.7-7.7,1.7-11.1,3.7c-3.2,1.8-5.3,4.5-5.4,8.1c-0.2,11.2-0.5,22.5,0.2,33.7c0.3,1.3-0.1,2.5-0.7,3.6c-0.1,1.5-0.3,3-0.3,4.6
	c0,49.3,0,98.6,0,147.9c0,1.3,0.2,2.6,0.3,3.9c1,1.3,1.3,2.7,1,4.3c-0.9,3.6-0.4,7.2-0.5,10.8c-0.1,5,0,10.1-0.1,15.1
	c0,1.3-0.2,2.6,0.6,3.8c0.8,1.5,2.3,2.3,3.6,3.3c7.4,5,15.1,9.7,22.5,14.8c3.4,2.3,4.7,6.2,3.4,10c-0.8,2.2-2.7,2-4.4,2
	c-9.7,0.1-19.5,0-29.2,0c-1.6,0-3.3-0.1-4.9,0.4C562.8,404.3,561.1,403.9,559.5,403.1z"/>
<path class="st2" d="M492.4,69.7c-6.8,6.8-13,13.1-19.3,19.2c-1.6,1.6-2.3,3.2-2.3,5.4c0.1,11.6,0.1,23.2,0,34.8
	c0,1,0.3,2.1-0.4,3.4c-2.3-2.1-4.7-4-6.7-6.3c-5.2-5.8-11.4-8-19.2-7.9c-18.3,0.3-36.6,0.1-54.9,0c-3.5,0-6.3,1.4-8.9,3.7
	c-3.8,3.4-7.5,6.8-11.9,10.7c0-3.8,0-7,0-10.1c0-9.8,0-19.5,0-29.3c0-1.9-0.5-3.2-1.9-4.6c-6.3-6.2-12.5-12.5-19.2-19.1
	C396.2,69.7,443.9,69.7,492.4,69.7z"/>
<path class="st2" d="M461.7,258.2c14.1,7.2,19.6,25.1,12.2,38.9c-3.2,5.9-7.9,9-14.8,9c-27.1-0.1-54.1,0-81.2-0.1c-1,0-3,1.1-3-1.2
	c0-1.8-1-4.1,2.1-4.6c0.8-0.1,1.7-0.5,2.5-0.9c9.5-3.7,10.2-4.6,10.2-14.7c0-12.4,0-24.8,0-37.1c0-6.2-1.7-9-7.5-11.3
	c-2.2-0.9-4.6-1.6-7-1.8c-2.3-0.2-2.6-1.2-2.5-3.1c0.2-4.9-0.6-4,4.2-4.1c24.2-0.4,48.4-0.7,72.6-1c16.7-0.2,21.4,14.7,18,25.3
	C466.5,254.4,464.9,256.9,461.7,258.2z"/>
<path class="st3" d="M524.2,137.2c3.9,0.3,7.6,5.3,7.7,10.6c0.1,5.6,0.1,11.1,0.1,16.7c0,16.2,0.1,32.3,0.1,48.5
	c0,0.9-0.2,1.7-0.2,2.6c-3,4.3-7.3,7.2-11.1,10.6c-10.1,8.9-20.1,17.8-30.3,26.5c-3.1,2.7-5.7,6.1-9.7,7.6c-3.3-1.7-5.8-4.5-8.8-6.6
	c1.9-6.1,1.9-12.3-0.4-18.3c-3.7-9.4-12.6-14.5-24.4-14c-5.3,0.2-10.7,0.1-16.1,0.1c-0.6-0.7-1.1-1.3-1.7-1.9c0.5-2.1,2.3-2.5,4.1-3
	c8.4-0.3,16.5-1.9,24-5.7c9.4-4.8,15.3-12.1,16.3-22.9c0.4-1.4,1.6-2,2.6-2.8c15.8-11.4,31.7-22.6,47.5-33.9c0.4-0.3,1-0.5,1.3-1.3
	c-6.1,0.2-12,1.2-18,1.6c-0.7,0-1.3,0.3-1.9,0.3c-0.8,0-1.7,0-2-0.8c-0.3-0.8,0.4-1.4,1-1.9c1.1-0.9,2.4-1.5,3.6-2.3
	c3.9-2.6,7.9-5.1,11.9-7.6C520.9,138.4,522.2,137,524.2,137.2z"/>
<path class="st3" d="M367.1,268.9c2.7,0.8,4.4,3,6.6,4.6c3.8,2.8,7.4,5.8,11,8.6c0,0.2,0.1,0.4,0.1,0.7c0.3,9.4,0,9.8-9.1,12.8
	c-1,0.3-2.1,0.8-3.1,0.9c-1.8,0.3-2.6,1.1-2.5,3.1c0.2,2.8,0.2,5.7,0,8.5c-0.2,2.4,0.7,2.9,2.9,2.9c12.6-0.1,25.2-0.1,37.8,0
	c1,0,1.9,0.2,2.9,0.3c-2.4,3.4-5.9,5.2-9.7,6.7c-10.5,0.1-21,0.2-31.5,0.1c-2.6,0-3,0.8-3.3,3.3c-0.5,5.4,0.8,9.8,5.4,13
	c0.6,0.4,0.9,1.2,1.4,1.7c-0.2,2-2,2.5-3.3,3.3c-16.7,11-33.4,22.2-50.2,33.1c-1.5,0.9-3,1.9-4.6,3.1c1.1,0.6,2.1,0.3,3.1,0.3
	c6.6,0,13.2,0,19.7,0.1c1,0,2.5-0.2,2.8,1.1c0.2,1-1.1,1.5-2,2c-5.7,3.1-11.2,6.5-16.8,9.7c-1.3,0.7-2.6,1.8-4.3,1.4
	c-4.8-0.6-8.9-5.8-9-11.6c-0.1-9.6-0.2-19.3-0.2-28.9c0-9.8,0-19.7,0-29.5c0-1.3-0.3-2.6,0.6-3.8c0.7-2,2.4-3.1,3.8-4.4
	c10.6-9,21-18.2,31.6-27.2c5.4-4.6,10.8-9.3,16.2-14C364.7,270,365.7,269.1,367.1,268.9z"/>
<path class="st2" d="M434.2,211.9c-11.6-1.1-23.1-3.1-34.4-6.3c-4.4-1.2-4.5-1.2-4.6,3.2c0,0.8,0,1.5-0.1,2.3c-0.2,1-0.6,2-1.6,2.3
	c-1.2,0.3-1.7-0.7-2.2-1.6c-6.7-10.8-13.6-21.4-21.9-31.1c-0.8-0.9-1.2-2-0.4-3c0.8-0.9,2.1-0.8,3-0.1c1.8,1.2,3.6,2.5,5.3,3.8
	c11.7,9,23.6,17.5,38.4,20.7c4.9,1.1,9.8,2.2,14.9,2.4c0.4,0,0.9,0.1,1.3,0.1c4.8,0.1,9.7-2.4,10.5-5.3c1-3.2-2-9-5.8-11.3
	c-4.5-2.8-9.7-3.2-14.8-3.9c-11.5-1.5-22.4-4.9-32.2-11.3c-5.4-3.6-9.6-8.3-11.9-14.4c-3.8-10.1,0.1-18.6,7.9-23.3
	c11.8-7,24.2-9.5,37.2-3.4c3.3,1.5,6.8,2.5,10.4,2.6c2.4,0.1,4.7-0.2,4.5-3.6c-0.1-1.1,0.5-2.2,1.7-2.5c1.2-0.4,2.2,0,2.9,1
	c6.3,8.5,14.4,15.3,21.6,23c1.1,1.2,3.8,2.3,1.9,4.4c-1.7,1.8-3.9,0.8-5.6-0.5c-8.5-6.6-18-11.2-28-14.9c-6.2-2.3-12.5-4.2-19.2-3.6
	c-1.1,0.1-2.2,0.3-3.2,0.6c-3.1,0.9-5.4,2.6-5.7,6c-0.2,3.4,1.5,5.9,4.5,7.4c4.6,2.2,9.5,3.3,14.4,4.4c6.9,1.6,13.9,2.9,20.8,4.6
	c9.9,2.5,17.7,8,22.5,17.2c4.6,8.8,2.7,18.5-4.9,24.9C453.5,209.1,444.1,211.2,434.2,211.9z"/>
<path class="st2" d="M395.5-11.3c-7.2-4.7-14.1-8.5-19.4-15.9c0.9,5.6,1.6,10.2,2.3,14.8c0.2,1.5,1,2.7,2.1,3.6
	c2.6,2.1,0.5,3.5-0.7,5c-1.5,2.1-2.5,0.1-3.4-0.6c-14-10.4-24.7-23.3-31.5-39.5c-5.5-13.2-4.6-25.8,2.4-38.1
	c4.8-8.3,11.1-15.5,17.2-22.7c1.6-1.8,3-3.8,4.7-5.5c8.3-8.3,11.8-18.4,12-29.9c0.1-4.5,1.2-9,1.8-13.9c6.8,11.3,7,23.4,6.7,35.7
	c16.8-13.1,30.4-28.1,35-49.4c0.7-3,1.1-6,0.8-9.1c-0.2-2,1.1-2.4,2.5-2.7c1.2-0.3,2.3-1.3,3.3,0.6c14.4,24.6,31.4,47.7,44.1,73.4
	c7.5,15.1,13.6,30.8,16.5,47.5c1.9,11.1,2,22.2-3.1,32.5c-7.6,15.3-20.5,23.4-37,26.3c-1.3,0.2-2.6,0.3-4.2,0.5
	c6.5-20.1,15.8-39.4,14.9-61.2c-1.5,0.4-2.1,1.2-2.6,2c-5.3,8.6-12.3,15.9-19,23.4c-4.5,5-8.9,10-12.1,15.9
	c-1.3,2.3-2.8,0.9-4.2,0.8c-1.2-0.2-2.3-0.5-1.8-2.3c0.3-1-0.1-2.1-0.9-3c-7-8.9-9.6-19.5-11.2-30.4c-0.5-3.1-0.9-6.2-1.4-9.9
	c-3.8,5.2-8.2,9-12.2,13.1c-6.9,7.1-7.3,15.5-5.2,24.5C393.2-21.4,394.3-16.7,395.5-11.3z"/>
<path class="st2" d="M440.5,345.3c0,11.6,0,22.7,0,34.4c-4.4-3.4-8.5-6.6-12.6-9.8c-3.7-3-8-1-12-1.3c-0.8-0.1-0.7,0.9-0.7,1.6
	c0,7.9,0,15.8,0,23.7c0,1.5,0.6,1.9,2,1.9c7.5,0,14.9,0.1,22.4-0.1c3.6-0.1,6.7-2,9.8-3.6c8.7-4.5,17.1-9.5,23.7-16.9
	c1.4-1.6,2.4-0.7,3.6-0.1c4.3,2.3,4.3,2.3,1.5,6.1c-4.8,6.7-9.6,13.3-14.4,20c-1,1.5-2.1,2.2-4,2.2c-27.3-0.1-54.6-0.1-81.9,0
	c-2.1,0-2.5-0.5-2.8-2.7c-0.8-5.6,1-9.5,6.3-11.6c6.9-2.7,9-7.6,8.4-15.1c-0.8-9.6-0.2-19.3-0.2-28.9c0-1.8-0.5-3.1-1.8-4.3
	c-3.9-3.8-7.7-7.8-11.6-11.7c-0.6-0.6-1.3-1.2-1.7-2c-1.4-2.7-0.4-4.3,2.6-4.3c24.8,0,49.5,0,74.3,0c1.8,0,3,0.5,4.2,1.9
	c5,6,10,11.9,15.1,17.8c1.4,1.6,1.2,2.5-0.2,3.9c-3.5,3.3-3.4,3.4-7.1,0.4c-5.7-4.6-11.5-9.1-17.2-13.8c-1.2-0.9-2.3-1.4-3.9-1.4
	c-8.2,0-16.4,0-24.7-0.1c-1.8,0-2.6,0.6-2.5,2.5c0,7.2,0,14.5,0,21.7c0,1.5,0.5,2,2.1,2.1c5.2,0.4,9.8-0.3,13.7-4.4
	C433.6,350.4,437,348.2,440.5,345.3z"/>
<path class="st2" d="M427.7,417.7c7.6,0,15.1,0.1,22.7-0.1c2.2,0,2.8,0.6,2.5,2.7c-2.9,23-5.7,46-8.4,69.1c-0.2,2.1-1.4,1.9-2.7,1.8
	c-2-0.2-2.5,0.5-2.6,2.5c-0.3,11-0.9,22.1-1.2,33.1c-0.1,3.4-1.7,5.6-4.6,7c-4.2,2-8.5,1.9-12.6-0.3c-2.5-1.3-3.9-3.4-4.1-6.3
	c-0.5-11.3-1.2-22.5-1.7-33.8c-0.1-1.9-0.6-2.5-2.4-2.3c-1.3,0.2-2.2,0-2.4-1.7c-2.6-22.9-5.2-45.9-8-68.8c-0.3-2.6,0.3-3.1,2.8-3.1
	C412.6,417.9,420.2,417.7,427.7,417.7z"/>
<path class="st2" d="M420.8,46c-26.4,0-52.8,0-79.3,0c-2.2,0-4.4,0-6.5-0.7c-4.3-1.3-6.6-4.2-6.4-8.3c0.2-3.9,3-7.2,7-8
	c1.6-0.3,3.3-0.4,4.9-0.4c53.3,0,106.6,0,159.8,0c7.3,0,10.7,3.4,10.2,10c-0.4,4.9-3.2,7.4-8.2,7.4C475.2,46,448,46,420.8,46z"/>
<path class="st2" d="M559.5,403.1c1.8,0,3.5,0.1,5.3,0.1c3.4,0.5,5.9,2.8,8.7,4.5c19.8,12.1,39.4,24.6,59.2,36.7
	c1.3,0.8,3.6,1.4,3.1,3.3c-0.5,1.6-2.7,1-4.1,1c-8.5,0-17.1,0.1-25.8,0c47.6,23.7,95.3,46.8,140.5,69.2
	c-16.4-12.2-34.7-26.1-53.1-39.9c-12.9-9.7-25.7-19.4-38.6-29.1c-0.5-0.4-1.1-0.8-1.6-1.2c-0.6-0.6-1.5-1.2-1.3-2.1
	c0.3-1.2,1.5-1.1,2.5-1.1c8.2-0.1,16.4-0.1,24.2,0c-23.9-17-48.3-34.2-72.6-51.4c-9.7-6.9-19.4-13.9-29.2-20.8
	c-1.2-0.8-2.9-1.3-2.6-3.4c2.3-1.6,4.9-0.6,7.3-0.9c7.4-0.4,14.8,0.9,22.9,0.7c-5.8-4.8-11.3-9-16.8-13.2c-3.9-3-7.8-6-11.7-9.1
	c-1.1-0.9-2.3-1.7-2.7-3.2c-0.8-1.1-0.5-2.5-0.6-3.7c9.3,7.2,18.7,14.4,28,21.6c4.8,3.7,9.6,7.5,15,11.8
	c-11.5-0.5-22.1-0.9-32.7-1.3c-0.1,0.2-0.1,0.4-0.2,0.6c35.4,25.1,70.8,50.1,106.7,75.6c-10,0-19.4,0-29.2,0
	c0.6,1.7,1.7,2.1,2.6,2.8c33.8,25.5,67.7,51,101.5,76.5c0.3,0.3,0.7,0.5,1,0.8c0.8,0.7,1.9,1.1,1.1,2.6c-0.9,1.6-1.8,0.6-2.7,0.2
	c-4.8-2.3-9.6-4.7-14.4-7.1C699,498.8,648.6,474,598.3,449.2c-1-0.5-2.8-0.6-2.4-2.5c0.4-2.2,2.2-1.4,3.5-1.4c8.9-0.1,17.7,0,27.3,0
	c-1.5-1.1-2.5-1.8-3.6-2.4c-20.6-12.8-41.3-25.6-61.9-38.3C560.6,404.1,560,403.6,559.5,403.1z"/>
<path class="st2" d="M542.6,125.6c-1.7,0-3.3,0-5,0c7.1-5.3,14.8-9.7,22.2-14.5c18.4-11.8,36.9-23.6,55.3-35.4
	c0.9-0.6,1.9-1,2.6-2.1c-5.8,0.9-11.6,1.7-17.3,2.5c-1.2,0.2-2.6,1-3.2-1c-0.5-1.9,1.1-1.9,2.1-2.4c28.1-15.1,56.2-30.2,84.3-45.3
	c19.5-10.5,39.1-21,58.7-31.5c1-0.5,2.1-2.5,3.5-0.5c1.6,2.2-0.9,2.6-1.8,3.4c-30.6,25.2-61.2,50.4-91.9,75.6
	c-0.5,0.4-0.9,0.8-2.1,1.8c7.9-0.5,15-0.9,23-1.3c-30.4,26.2-60.2,52-90.6,78.2c8.3,0,15.9,0,23.8,0c-0.5,1.6-1.5,2-2.3,2.7
	c-10.4,9.1-20.8,18.1-31.2,27.1c0-1.2,0-2.4,0.1-3.6c2.2-4.2,6.5-6.4,9.8-9.6c4.6-4.3,9.6-8.3,14.5-12.8c-0.9-0.7-1.8-0.5-2.6-0.5
	c-5.5,0.1-10.9,0.2-16.4,0c-1,0-2.2,0.1-2.6-1c-0.4-1.1,0.6-1.8,1.4-2.4c12.8-11.1,25.7-22.2,38.5-33.3
	c12.1-10.4,24.2-20.8,36.3-31.4c3.4-3,7.1-5.8,10.3-9.3c-5,1-10-0.1-15,0.9c-1.6,0.3-4.1,0.9-4.8-0.8c-0.7-1.6,1.6-2.6,2.8-3.6
	c21.3-17.4,42.4-35,63.7-52.4c6.5-5.3,12.8-10.7,18.4-15.1C688.5,29,649,50.4,609.2,71.6c4.5-1.3,8.9-1.6,13.3-2.1
	c1.5-0.2,2.9-0.1,3.5,1.6c0.6,1.8-0.7,2.6-1.9,3.4c-19,12.2-38.1,24.3-57.1,36.5c-7,4.5-14,9-21.1,13.3
	C544.9,124.9,544,125.7,542.6,125.6z"/>
<path class="st2" d="M420.1,52.6c26,0,51.9,0,77.9-0.1c2.5,0,3.3,0.6,3.2,3.2c-0.2,7.4,0,7.4-7.5,7.4c-50.3,0-100.6,0-150.8,0.1
	c-3,0-3.8-0.7-3.7-3.7c0.2-6.9,0.1-6.9,7-6.9C370.8,52.6,395.5,52.6,420.1,52.6z"/>
<path class="st2" d="M252.9,146.2c2.2,2.5,5.5,4.1,6.3,7.8c-24.3-16.4-48.7-32.7-73-49.1c-8.6-5.8-17.3-11.6-25.8-17.5
	c-0.9-0.6-2.4-0.8-1.7-2.6c0.7-2,2.1-1.1,3.2-1c8,1,16.1,2,25.1,3.1c-4.4-3.4-8-6.1-11.6-8.9c-31.5-24.2-63-48.4-94.5-72.7
	c-0.7-0.6-2.1-0.9-1.8-2c0.4-1.7,1.4-1.9,3.1-1c10.1,5.4,20.4,10.6,30.6,15.8c41,21.2,82.1,42.5,123.1,63.7c0.3,0.2,0.7,0.2,0.9,0.4
	c0.8,0.8,2.8,0.5,2.3,2.6c-0.5,2-2,1.3-3.2,1.2c-6.2-0.5-12.4-1.1-18.6-1.6c-1.2-0.1-2.4-0.2-3.7-0.3c0.5,1.3,1.6,1.6,2.5,2.2
	c18.4,12.3,36.8,24.5,55.1,36.8c1.2,0.8,2.5,1.3,3.3,2.6c-1.7,0-3.3,0-5,0.1c-4.1-1.1-7.2-4.1-10.6-6.4
	c-10.3-6.8-20.6-13.8-30.9-20.5c-6.5-4.3-12.8-8.9-19.4-12.9c-1.4-0.8-2.9-1.9-2.2-3.9c0.6-1.8,2.3-1.9,3.8-1.8
	c5.9,0.5,11.7,1.3,17.2,1.5c-42.7-22.3-86.1-44.4-127.4-66c9.8,7,20.9,15.9,32.2,24.5C148.9,53,165.8,66,182.6,79
	c4,3.1,8,6.2,12,9.2c0.8,0.6,2.2,1.2,1.7,2.5c-0.5,1.1-1.9,1-3,0.8c-6-0.7-12-1.4-17.9-2.2c-2.3-0.3-4.5-0.3-6.8-0.8
	c14.3,9.7,28.5,19.4,42.8,29c12.1,8.1,24.1,16.4,36.3,24.4C249.6,143.1,251.4,144.4,252.9,146.2z"/>
<path class="st4" d="M419.6,22c-18.4,0-36.8-0.1-55.2,0.1c-2.8,0-3.7-0.7-3.4-3.4c0.2-2.4,0.1-4.8,0-7.2c-0.1-1.4,0.5-2,1.9-1.9
	c0.5,0,1.1,0,1.6,0c36.8,0,73.7,0,110.5-0.1c2.9,0,4,0.7,3.6,3.6c-0.4,2.9,1.2,6.6-0.7,8.5c-1.8,1.7-5.4,0.5-8.3,0.5
	C453,22,436.3,22,419.6,22z"/>
<path class="st5" d="M289.3,407.9c1.8,0,3.6-0.6,5.3,0.4c-23.1,13.2-46.3,26.3-69.4,39.5c0.1,0.2,0.1,0.4,0.2,0.6
	c8,0.4,15.9,0.8,23.9,1.3c0.1,0.2,0.1,0.4,0.2,0.6c-5.4,2.9-10.8,5.9-16.2,8.8c-38.9,20.9-77.8,41.7-116.7,62.6
	c-0.9,0.5-1.7,0.9-2.6,1.4c-1,0.4-1.3-0.3-1.8-0.9c-0.5-0.7-0.4-1.2,0.2-1.7c0.5-0.4,1-0.9,1.5-1.3c25.4-21.7,50.8-43.3,76.2-65
	c0.8-0.7,1.9-1.1,2.2-2.5c-6.6-1.3-13.2-2.7-20.5-4.2c6.7-4.2,12.8-8.1,18.9-11.9c19.9-12.5,39.9-25,59.8-37.4
	c0.5-0.3,1.2-0.5,1.8-0.8c-0.2,1.1-0.3,2.2-0.5,3.3c-0.7,2-2.6,2.6-4.1,3.6c-21.5,13.4-42.9,26.8-64.3,40.3c-0.4,0.2-0.8,0.4-1.1,1
	c1,0.7,2.2,0.7,3.3,0.9c3.8,0.8,7.5,1.4,11.3,2.3c2.8,0.7,3,1.7,0.8,3.6c-11.5,9.9-23.1,19.8-34.7,29.7
	c-9.9,8.4-19.9,16.8-29.7,25.4c-1.7,1.4-3.4,2.8-5.2,3.9c36.4-19.8,73-39.2,108.9-58.6c-6.2-1.1-13.1-0.3-19.9-1.4
	c-0.8-0.1-1.8-0.1-2-0.9c-0.3-1,0.8-1.5,1.5-1.9c5.9-3.5,12-6.8,18-10.3c15.1-8.7,30.4-17.1,45.4-25.8
	C282.9,410.6,285.8,408.6,289.3,407.9z"/>
<path class="st4" d="M499.3,498.7c12.3,0,22,9.8,22,22.1c-0.1,12.6-9.7,22.4-22.2,22.4c-12.4,0-21.9-9.8-21.9-22.5
	C477.3,508.2,486.9,498.6,499.3,498.7z"/>
<path class="st4" d="M320.7,390.2c7.5-4.3,15-8.5,23.1-13.2c-9.8,0-18.8,0-28.3,0c0.7-1.6,1.9-1.9,2.8-2.5
	c18.5-12.2,37-24.4,55.6-36.6c0.8-0.5,1.6-1.2,2.3-1.8c2.6,1.2,2.3,2.2,0,3.7c-15.8,10.3-31.6,20.8-47.4,31.2
	c-1.3,0.8-2.5,1.7-4.5,3c10.2,0,19.6,0,29,0c0.1,0.3,0.2,0.5,0.3,0.8c-10.1,5.8-20.2,11.6-30.3,17.4
	C322.3,391.7,321.1,391.5,320.7,390.2z"/>
<path class="st4" d="M524.2,137.2c-7,4.5-13.9,8.9-20.9,13.4c0,0.2,0.1,0.4,0.1,0.6c7.9-0.8,15.8-1.5,23.7-2.3
	c0.1,0.2,0.3,0.5,0.4,0.7c-18,12.8-35.9,25.5-53.9,38.3c-0.7-2.3,0.2-3.8,2.2-5.1c13.1-9.2,26.2-18.5,39.3-27.9c0.9-0.6,2-1,2.5-2.3
	c-6.1,0.6-12,1.3-17.9,1.8c-1.3,0.1-3.2,1.3-3.9-1c-0.6-2,1.4-2.2,2.4-2.9c7.9-5.1,15.8-10.1,23.7-15.2
	C522.8,135.8,524,135.9,524.2,137.2z"/>
<path class="st6" d="M104.3,590.8c0-4.1,0.1-8.1,0-12c-0.1-2,0.9-2,2.4-2c1.4,0.1,2.8-0.4,2.7,2c-0.2,5.9,0,11.8-0.1,17.7
	c0,1.1,1,3-0.9,3.2c-1.8,0.2-3.8,0.8-5.3-1.4c-2.9-4.2-6.2-8.2-9.8-13c0,4.4-0.1,8,0,11.7c0,1.8,0,2.9-2.5,2.9c-2.5,0-2.8-1-2.7-3.1
	c0.1-5.7,0-11.4,0.1-17.1c0-1-0.9-2.8,1-2.9c1.6-0.1,3.4-0.8,4.8,1.1c2.7,3.8,5.7,7.5,8.5,11.2C102.8,589.7,103,590.6,104.3,590.8z"
	/>
<path class="st6" d="M479.1,587.8c3.5,1.6,5,4,4.1,7.3c-0.9,3.4-3.6,4.5-6.8,4.7c-3.2,0.1-6.4,0-9.5,0.1c-1.7,0.1-1.9-0.7-1.9-2.2
	c0.1-6.2,0-12.5,0-18.7c0-0.9-0.4-2.2,1.2-2.1c3.7,0.1,7.4-0.4,11.1,0.4c2.5,0.6,4.1,2,4.6,4.5C482.4,584.2,481.8,586.3,479.1,587.8
	z"/>
<path class="st6" d="M638.7,597.4c-3.8,2.5-7.5,3-11,0.2c-2.9-2.4-3.5-5.7-2.6-9.3c1.4-5.4,6.4-7.7,11.4-5.2c0.6,0.3,0.9,1,1.6-0.3
	c0.8-1.6,2.8-0.7,4.2-0.5c1.4,0.2,0.7,1.6,0.7,2.5c0.1,4.2,0,8.3,0,12.5c0,3.8-1.2,6.9-4.9,8.6c-3.8,1.7-7.4,1.2-11.1-0.6
	c-1.7-0.8-0.6-1.8-0.2-2.7c0.4-1.1,0.9-2,2.3-1c1.5,1,3.3,1.2,5.1,0.9C636.8,601.9,638.6,600.6,638.7,597.4z"/>
<path class="st6" d="M578.8,588.3c0-3.1,0.1-6.1,0-9.2c-0.1-1.6,0.3-2.3,2.1-2.3c4.2,0.1,8.3,0.2,12.5,0c2-0.1,2.1,0.8,2,2.3
	c0,1.4,0.1,2.6-2,2.4c-2.2-0.2-4.4,0-6.6-0.1c-1.6,0-3.1-0.4-3.1,2.3c0,2.6,1.3,2.4,3,2.4c1.6-0.1,3.3,0,4.9,0
	c1.6-0.1,2.7,0,2.7,2.2c0,2.1-0.9,2.3-2.6,2.2c-1.7-0.1-3.5,0.1-5.3,0c-1.7-0.1-2.8,0-2.7,2.3c0,2.1,0.7,2.6,2.6,2.4
	c2.5-0.2,5,0.1,7.6-0.1c2.3-0.2,1.6,1.4,1.8,2.6c0.1,1.4-0.1,2.2-1.9,2.1c-4.4-0.1-8.8-0.1-13.1,0c-1.6,0-2.1-0.5-2-2.1
	C578.8,594.6,578.8,591.4,578.8,588.3z"/>
<path class="st6" d="M267.7,600c-1.3,0-3.6-0.6-5.6-2c-0.9-0.7-3.2-0.9-1.8-2.9c1-1.5,1.9-3.6,4.4-1.3c1.4,1.3,3.4,2,5.5,1.6
	c1.2-0.2,2.1-0.8,2.2-2c0.1-1.1-0.6-1.9-1.6-2.2c-2-0.6-4-1.2-5.9-1.9c-3.1-1.1-4.6-3.3-4.4-6.5c0.2-3.2,2.1-5.1,5.1-6.1
	c3.2-1,6.3-0.4,9.2,1c0.9,0.4,3,0.6,1.8,2.6c-0.9,1.4-1.6,3.2-3.9,1.5c-1.2-0.9-2.8-1.2-4.4-1.1c-1.2,0.1-2.2,0.6-2.5,1.8
	c-0.3,1.3,0.6,2,1.7,2.4c1.1,0.4,2.3,0.7,3.5,1c5.2,1.4,7.2,4,6.6,8.2C277.1,597.9,273.7,600.2,267.7,600z"/>
<path d="M549.7,588c3.4-3.7,5.8-7.7,11.3-5.5c-1.6,1.7-3.1,3.5-4.8,5.2c-1.2,1.1-1.3,2-0.3,3.3c2,2.7,3.7,5.6,5.9,8.8
	c-2.5-0.4-4.9,1.1-6.6-1.2c-1.3-1.7-2.4-3.6-3.6-5.4c-2.2,1.1-1.9,3-1.7,4.7c0.2,2.2-1.1,1.9-2.5,1.9c-1.3,0-2.6,0.4-2.5-1.8
	c0.1-6.9,0.1-13.8,0-20.7c0-2.2,1.3-1.8,2.5-1.8c1.4,0,2.6-0.2,2.4,1.9C549.6,580.7,549.7,584,549.7,588z"/>
<path class="st6" d="M379,582.4c3.7-1.1,5.8-0.1,6.7,3.6c0.5,2.2,1.6,4.3,2.5,6.6c1.6-2,2.3-4.3,2.9-6.5c1-3.7,2.9-5,6.8-3.7
	c-2.8,7-5.5,14.1-8.5,21.1c-1.2,2.8-4.2,3.9-7.2,2.8c-1.1-0.4-3-0.6-2.4-2.3c0.4-1.2,0.7-3.6,3.5-2.2c1.8,0.9,2.9-0.8,2.1-3.2
	c-1.7-4.8-3.7-9.6-5.5-14.4C379.5,583.8,379.3,583.2,379,582.4z"/>
<path class="st7" d="M272.9,186.9c0.6,1.1,0.9,2.2,0,3.3c-11.1-7.4-22.2-14.7-33.2-22.1c-0.8-0.5-2.1-0.9-1.6-2.5
	c0.5-1.7,1.7-1.3,2.9-1.2c10.2,0.9,20.4,1.7,30.7,2.6c0.5,0.7,2.1,1,1.5,2.1c-0.7,1.3-2.3,0.2-3.5,0.6c-0.7,0.7-1.6,0.8-2.5,0.7
	c-6.4-0.7-12.9-0.6-19.3-1.8c-0.7-0.1-1.5-0.2-1.8-0.7c7.8,5.1,15.7,10.4,23.7,15.7C271,184.6,272.5,185.2,272.9,186.9z"/>
<path class="st6" d="M719.1,592.7c-1.5,0-3.1,0-4.6,0c-0.6,0-1.4-0.3-1.6,0.6c-0.1,0.7,0.4,1.2,1,1.6c1.9,1.4,4,1.6,5.8,0.4
	c2.1-1.4,2.9,0.3,3.5,1.3c1,1.6-0.9,1.9-1.7,2.4c-3.6,2-8.5,1.3-11.3-1.4c-2.6-2.5-3.4-7.2-1.8-10.7c1.6-3.5,5.5-5.4,9.9-4.9
	c4.6,0.6,7.7,4.8,7.1,9.4c-0.2,1.3-0.8,1.3-1.7,1.3C722.1,592.7,720.6,592.7,719.1,592.7z"/>
<path class="st6" d="M696.1,592.7c-1.5,0-3.1,0-4.6,0c-0.6,0-1.4-0.3-1.6,0.6c-0.2,0.7,0.4,1.2,0.9,1.6c1.8,1.4,4,1.7,5.8,0.4
	c2.1-1.4,2.9,0.2,3.5,1.3c1.1,1.6-0.8,1.9-1.7,2.4c-3.6,2-8.5,1.3-11.3-1.4c-2.6-2.5-3.4-7.2-1.8-10.7c1.6-3.5,5.5-5.4,9.9-4.9
	c4.6,0.6,7.7,4.7,7.1,9.4c-0.2,1.3-0.7,1.3-1.7,1.3C699.1,592.7,697.6,592.7,696.1,592.7z"/>
<path class="st6" d="M352,592.7c-1.4,0-2.9-0.1-4.3,0c-0.7,0-1.7-0.5-1.9,0.6c-0.1,0.8,0.6,1.4,1.3,1.8c1.8,1.1,3.9,1.4,5.6,0.1
	c2.1-1.5,2.8,0.3,3.5,1.3c1,1.5-0.7,1.8-1.5,2.2c-3.6,2.1-8.7,1.5-11.6-1.3c-2.7-2.7-3.4-7.5-1.5-11c1.8-3.5,5.7-5.2,10.1-4.5
	c4.4,0.7,7.4,5,6.7,9.4c-0.2,1-0.5,1.3-1.4,1.3C355.3,592.7,353.6,592.7,352,592.7z"/>
<path class="st6" d="M127.3,588.5c-1-2.8-2.7-3.6-5.9-2c-2.1,1.1-3.1,0.4-3.7-1.3c-0.8-2,1.3-1.9,2.2-2.4c2.2-1.1,4.7-1.1,7.1-0.8
	c3,0.5,5,2.2,5.2,5.4c0.1,3.6,0.4,7.2,0.1,10.8c-0.3,3.1-3.7,1.8-4.1,1.3c-1.2-1.5-1.8-0.4-2.7,0c-2.7,1.2-6.2,0.3-8-2
	c-2.3-3-1.1-6.9,2.5-8.3C122.3,588.4,124.8,588.9,127.3,588.5z"/>
<path class="st6" d="M511.5,588.7c-1-3-2.6-3.5-6.2-2.1c-1.1,0.4-2,1.1-3-0.4c-0.9-1.5-0.9-2.2,0.8-2.9c2.8-1.3,5.7-1.6,8.6-1
	c2.7,0.6,4.5,2.3,4.6,5.2c0.1,3.6,0.3,7.2,0.1,10.8c-0.2,3.2-3.6,1.8-4.1,1.3c-1.2-1.2-1.7-0.5-2.7-0.1c-2.9,1.2-5.6,0.7-7.8-1.6
	c-2.6-2.9-1.6-7.2,2.1-8.5c1.2-0.4,2.6-0.5,3.9-0.7C509,588.6,510.2,588.7,511.5,588.7z"/>
<path class="st6" d="M225.5,588.5c-1.4-3.8-4-2.9-6.2-2c-1.8,0.8-2.8,0.5-3.6-1.1c-1-2.1,1-2.1,2-2.5c2.3-1.2,4.9-1.2,7.4-0.8
	c2.8,0.5,4.9,2.1,5,5.2c0.2,3.7,0.2,7.4,0.2,11.1c0,1.3-3.3,2.4-4.3,1.1c-1.1-1.5-1.6-0.5-2.4-0.1c-2.8,1.2-5.4,0.8-7.6-1.2
	c-3.1-2.9-2-7.5,2-8.9C220.3,588.5,222.7,588.8,225.5,588.5z"/>
<path class="st6" d="M176.3,582c5.3,0,9.2,3.7,9.3,8.9c0.1,5.3-4,9.2-9.4,9.2c-5.2,0-9.2-3.9-9.3-9
	C166.8,585.8,170.8,581.9,176.3,582z"/>
<path class="st6" d="M422.4,582c5.3,0,9.2,3.8,9.2,9c0,5.2-4,9.2-9.5,9.2c-5.2,0-9.2-4-9.2-9.1C412.9,585.7,416.8,581.9,422.4,582z"
	/>
<path class="st6" d="M291.9,582c5.5,0,9.5,3.8,9.5,9.1c0,5.1-3.9,9-9.2,9.1c-5.3,0.1-9.5-3.9-9.5-9.2
	C282.7,585.8,286.6,582,291.9,582z"/>
<path class="st6" d="M602,590.7c0-2,0-3.9,0-5.9c0-2.4,3-4.2,4.4-2.5c1.3,1.7,1.9,0.7,2.8,0.2c4-1.7,8.2,0.3,9.1,4.6
	c0.8,3.8,0.3,7.6,0.3,11.4c0,2.3-1.9,1.1-3,1.3c-1.2,0.3-2.1,0.1-2-1.6c0.1-2.7,0-5.5,0-8.2c0-2.1-0.4-4.2-3-4.2
	c-2.5,0-3.6,1.7-3.7,4.1c0,2.5-0.1,5,0,7.5c0.1,1.7-0.3,2.5-2.3,2.4c-1.7-0.1-3,0-2.7-2.3C602.2,595.3,602,593,602,590.7z"/>
<path class="st6" d="M678.5,593.6c0,1.1,0,2.2,0,3.3c0.1,1.7,0.2,3-2.4,3c-2.6,0-2.8-1.1-2.7-3.1c0.1-2.4,0-4.8,0-7.2
	c0-2.1-0.7-3.9-3-3.9c-2.3,0-3.5,1.6-3.6,3.9c-0.1,2.7-0.2,5.5,0,8.2c0.1,2-0.8,2.1-2.3,2c-1.4-0.1-2.8,0.3-2.7-2
	c0.2-4.4,0-8.7,0.1-13.1c0-0.9-0.6-2.3,0.6-2.5c1.3-0.3,3.4-0.8,3.9,0.3c0.8,1.7,1.3,0.7,2,0.3c4.6-2.2,8.9-0.1,9.8,5
	C678.6,589.7,678.5,591.7,678.5,593.6C678.6,593.6,678.5,593.6,678.5,593.6z"/>
<path class="st6" d="M208.2,593.6c0,1.1,0,2.2,0,3.3c0.1,1.7,0.2,3-2.4,3c-2.6,0-2.8-1.1-2.7-3.1c0.1-2.4,0-4.8,0-7.2
	c0-2.1-0.7-3.9-3-3.9c-2.3,0-3.5,1.6-3.6,3.9c-0.1,2.7-0.2,5.5,0,8.2c0.1,2-0.8,2.1-2.3,2c-1.4-0.1-2.8,0.3-2.7-2
	c0.2-4.4,0-8.7,0.1-13.1c0-0.9-0.6-2.3,0.7-2.5c1.3-0.3,3.4-0.8,3.9,0.3c0.8,1.7,1.3,0.6,2,0.3c4.6-2.2,8.9-0.1,9.8,5
	C208.3,589.7,208.2,591.7,208.2,593.6C208.3,593.6,208.2,593.6,208.2,593.6z"/>
<path class="st7" d="M272.3,371.8c1.8,1.4,1.6,2.2-0.6,2.6c-8.7-1.1-17.5-2.3-27-3.5c9.9-8.5,19.3-16.4,28.7-24.4
	c0.1,1.3,0.4,2.7-0.5,3.9c-1.5,3.8-5.3,5.5-8,8.1c-3.5,3.4-7.4,6.5-11.5,9.9c4.8,0.5,9.3,1.2,13.8,1.7
	C269,370.3,270.9,370.2,272.3,371.8z"/>
<path class="st6" d="M443.4,592.7c0,1.4,0,2.8,0,4.3c0,1.7,0.3,3-2.4,3c-2.8,0-2.6-1.3-2.5-3.2c0.1-2.7,0.1-5.5,0-8.2
	c0-1.2,0.6-2.5-1.5-2.9c-1.1-0.2-0.7-2.7-0.4-2.8c2.6-0.6,1.7-3.1,2.5-4.6c1.6-3.2,6-4.4,9-2.4c1,0.7,1.2,1.3,0.5,2.4
	c-0.6,0.9-0.7,2-2.2,1c-1.5-0.9-2.6-0.3-2.9,1.3c-0.4,2.2,1.4,1.4,2.4,1.4c1.1,0.1,2,0.1,1.8,1.6c-0.1,0.8,0.5,2.4-1.1,2.1
	c-4-0.7-3.2,2-3.2,4.2C443.4,590.9,443.4,591.8,443.4,592.7z"/>
<path class="st6" d="M753.4,582c1.3-0.1,2.9,0.1,4.2,0.9c0.8,0.4,2.5,0.5,1.5,2.2c-0.6,1.1-1,2.6-2.8,1.4c-0.3-0.2-0.8-0.3-1.2-0.4
	c-1.4-0.3-3.4-0.8-3.9,0.6c-0.6,1.9,1.6,1.9,2.8,2.3c5.2,1.9,6.6,3.5,5.8,6.8c-0.8,3.4-4.5,5.1-9.1,4.2c-1.3-0.3-2.5-0.8-3.7-1.3
	c-0.9-0.4-2.1-0.9-1-2.4c0.8-1,1.2-2.2,2.7-0.9c0.2,0.1,0.4,0.2,0.6,0.3c1.9,0.6,4.7,2.2,5.6,0c0.9-2.3-2.4-2.2-4-3
	c-2.6-1.2-5.1-2.4-4.5-5.9C747,583.7,749.6,582,753.4,582z"/>
<path class="st6" d="M316.3,600.1c-4.2,0-7.7-2.5-8.9-6.4c-1.2-3.9,0.1-7.7,3.4-10.1c3.1-2.3,8.2-2.2,11.4,0.1
	c1,0.7,1.7,1.4,0.5,2.5c-0.8,0.8-1,2.6-2.9,1.1c-1.8-1.5-4-1.7-6.1-0.2c-1.6,1.1-2.1,2.7-1.8,4.6c0.5,3.7,4.3,5.4,7.4,3
	c2.2-1.7,2.8-0.2,3.7,0.9c1.4,1.8-0.6,2.2-1.5,2.9C320.1,599.7,318.2,600,316.3,600.1z"/>
<path class="st6" d="M532.2,582c1.6-0.1,3.3,0.2,4.8,1.2c0.8,0.6,3,0.7,1.8,2.7c-0.8,1.3-1.4,2.8-3.6,1.2c-2.1-1.6-4.7-1.3-6.5,0.9
	c-1.6,2-1.6,4.4,0.2,6.3c2,2.1,4.5,2.2,6.7,0.2c1.7-1.6,2.1,0.2,3,0.9c1.2,1,0.8,1.7-0.3,2.6c-3,2.6-7.8,2.9-11.3,0.8
	c-3.5-2.2-5-6.3-3.8-10.3C524.3,584.5,527.7,582,532.2,582z"/>
<path d="M142.5,576.9c1.9-0.5,2.6,0.3,2.4,2.2c-0.3,2,0,3.5,2.6,3c1.2-0.2,1.8,0.2,1.7,1.6c0,1.2,0,2.2-1.7,2
	c-2.2-0.4-2.9,0.7-2.7,2.8c0.2,1.4,0,2.8,0,4.3c0,2.2,0.6,3.9,3.3,2.6c1.6-0.8,1.4,0.7,1.9,1.3c0.8,1,0.6,1.7-0.5,2.4
	c-2,1.2-4.1,1.4-6.3,0.5c-2-0.9-3.2-2.6-3.3-4.9c-0.1-1.9,0.1-3.7-0.1-5.6c-0.1-1.3,0.9-3-1.6-3.6c-0.9-0.2-0.9-2.8,0-3
	c2.3-0.4,1.7-1.9,1.6-3.1C139.6,577.1,140.5,576.4,142.5,576.9z"/>
<path d="M367.4,576.9c2.3-0.6,2.6,0.7,2.4,2.5c-0.3,2.1,0.4,3.1,2.6,2.7c1.2-0.2,1.8,0.2,1.7,1.6c-0.1,1.2,0,2.3-1.7,2
	c-2.6-0.4-2.9,1.1-2.7,3.1c0.1,1.3,0,2.6,0,3.9c0,2.2,0.5,3.9,3.3,2.6c1.6-0.7,1.4,0.6,1.9,1.3c0.7,1,0.6,1.7-0.5,2.4
	c-2,1.3-4.1,1.5-6.3,0.5c-2-0.9-3.2-2.6-3.3-4.9c-0.1-2,0-3.9,0-5.9c-0.1-1.3,0.7-2.8-1.6-3.3c-0.9-0.2-0.9-2.8-0.1-3
	c2.3-0.4,1.8-1.9,1.6-3.1C364.6,577.2,365.3,576.4,367.4,576.9z"/>
<path d="M494.5,587.7c0,3.4-0.1,6.8,0.1,10.2c0.1,2-0.8,2.1-2.3,2c-1.4-0.1-2.7,0.3-2.7-2c0.2-6.8,0.2-13.6,0-20.3
	c-0.1-2.3,1.3-2,2.7-2c1.5-0.1,2.4,0,2.3,2C494.3,580.9,494.5,584.3,494.5,587.7z"/>
<path d="M237.6,587.5c0-3.4,0.1-6.8,0-10.2c-0.1-2.1,1.1-1.9,2.5-1.9c1.2,0,2.6-0.4,2.5,1.8c-0.1,6.9-0.1,13.8,0,20.7
	c0,2.1-1.1,1.9-2.4,1.9c-1.2,0-2.6,0.4-2.5-1.8C237.8,594.5,237.6,591,237.6,587.5z"/>
<path d="M732.9,582c1.7,0.2,3-0.4,3,1.5c0,0.7,0.5,0.4,0.9,0.1c0.4-0.2,0.7-0.5,1.1-0.7c0.9-0.4,1.9-1.3,2.7-0.7
	c1.1,0.7,0.5,2.2,0.6,3.3c0.1,1.4-1.1,1-1.9,1.1c-2.4,0.5-3.1,2.3-3.3,4.3c-0.2,2.1-0.2,4.2-0.1,6.2c0,1.7,0.1,2.8-2.3,2.8
	c-2.2-0.1-2.8-0.6-2.7-2.8c0.2-4.2,0.2-8.3,0-12.5C730.8,582.6,731.4,581.6,732.9,582z"/>
<path d="M334,591c0,2.1-0.1,4.2,0,6.2c0.1,1.7,0.1,2.8-2.3,2.8c-2.2-0.1-2.7-0.6-2.7-2.7c0.2-4.4,0.2-8.7,0-13.1
	c-0.1-2.3,1.3-2,2.7-2c1.5-0.1,2.5,0,2.3,2C333.8,586.4,334,588.7,334,591z"/>
<path d="M161,591.3c0,2-0.1,3.9,0,5.9c0.1,1.6,0.1,2.8-2.3,2.8c-2.1-0.1-2.8-0.6-2.7-2.7c0.2-4.4,0.2-8.7,0-13.1
	c-0.1-2.3,1.2-2,2.7-2c1.4,0,2.5,0,2.3,2C160.8,586.4,161,588.9,161,591.3z"/>
<path d="M655,591.3c0,2-0.1,3.9,0,5.9c0.1,1.7,0.1,2.8-2.3,2.8c-2.1-0.1-2.8-0.6-2.7-2.7c0.2-4.4,0.2-8.7,0-13.1
	c-0.1-2.3,1.2-2,2.7-2c1.5,0,2.5,0,2.3,2C654.8,586.5,655,588.9,655,591.3z"/>
<path class="st8" d="M272.2,384.6c-1.8,5.3-11.5,11.3-16.6,10.3C261.1,391.4,266.7,388,272.2,384.6z"/>
<path class="st9" d="M404.1,318c3.2-2.2,6.4-4.5,9.7-6.7c1.6-0.6,3.2-0.2,4.9,0C414,313.9,410.7,319.4,404.1,318z"/>
<path class="st10" d="M158.5,574.9c1.9,0.2,3,1.3,2.9,3c0,1.7-1.1,2.9-2.9,2.8c-1.8-0.1-2.8-1.1-2.8-2.9
	C155.7,575.9,156.9,575.1,158.5,574.9z"/>
<path class="st10" d="M655.5,577.8c-0.2,1.6-1,2.9-2.8,2.9c-1.8,0.1-2.9-1-3-2.7c-0.1-1.8,0.9-2.9,2.7-3
	C654.2,574.9,655.1,576,655.5,577.8z"/>
<path class="st10" d="M331.2,574.9c2,0.1,3.2,1.1,3.3,2.8c0.1,1.7-0.9,2.9-2.7,3c-1.8,0.1-2.8-1-3-2.7
	C328.6,576.1,329.8,575.3,331.2,574.9z"/>
<path class="st11" d="M433.3,216.6c-1.4,1-2.7,2-4.1,3c-0.9-0.4-1.6-1-2.2-1.8C428.9,215.5,431.1,216.2,433.3,216.6z"/>
<path class="st3" d="M252.9,146.2c-17.3-11.6-34.6-23.2-51.8-34.8c-10.8-7.3-21.6-14.6-32.4-21.9c-0.8-0.5-1.6-1.1-2.2-2.3
	c9.8,1.2,19.5,2.4,29.3,3.6c0.1-0.2,0.2-0.4,0.3-0.5c-33.3-25.6-66.6-51.2-99.9-76.8c0.1-0.2,0.2-0.4,0.3-0.6
	c44.6,23.1,89.2,46.1,133.9,69.2c-0.1,0.2-0.1,0.4-0.2,0.5c-6.7-0.6-13.4-1.2-20.1-1.8c-1.2-0.1-2.6-0.9-3.3,1c-0.8,2,1,2.2,1.9,2.8
	c19.1,12.8,38.3,25.5,57.4,38.3c1.2,0.8,2.2,1.7,3.4,2.6c-7.3,0.7-14.5,0.3-21.8,0.2c-2.9,0-3.5,0.8-3.7,3.6
	c-0.3,4.4,1,7.7,4.2,10.7C249.9,142,251.9,143.7,252.9,146.2z"/>
<path class="st3" d="M289.3,407.9c-23.4,13.3-46.7,26.7-70.1,40c-1.2,0.7-2.4,1.4-4.5,2.6c8.8,0.5,16.7,1,25.5,1.5
	c-38.6,20.7-76.3,40.9-114,61.1c-0.1-0.2-0.3-0.3-0.4-0.5c24.3-20.7,48.6-41.4,73.3-62.5c-6.6-1.4-12.8-2.6-19.8-4.1
	c24.6-15.4,48.5-30.4,72.4-45.4c0.6,0.5,0.5,1.2,0.5,1.8c0.2,5.3,0.2,5.3,5.7,5.3C268.4,407.7,278.9,407.8,289.3,407.9z"/>
<path class="st12" d="M311.6,313c0.1-24.4,0.2-48.8,0.3-73.2c0-4.9,0-9.8,0-14.5c1-0.5,1.4-0.1,1.8,0.3
	c16.7,13.4,33.5,26.8,50.2,40.2c0.4,0.3,0.7,0.8,1.1,1.2c-0.2,2-2,2.8-3.3,3.9c-12.3,10.6-24.4,21.2-36.7,31.7
	c-3.6,3.1-7,6.2-10.7,9.2C313.6,312.4,312.9,313.5,311.6,313z"/>
<path class="st13" d="M272.9,186.9c-9.3-6.2-18.6-12.5-28.7-19.2c9.2,0.7,17.3,1.4,25.5,2.1c3.4,0,4.2,1.7,3.8,4.9
	C273,178.7,274.1,182.9,272.9,186.9z"/>
<path class="st13" d="M272.3,371.8c-6.7-0.9-13.4-1.8-20.7-2.8c7.4-6.4,14.3-12.5,21.3-18.5c1.2,2.8,0.4,5.8,0.5,8.6
	c0.2,3.4,0.1,6.7,0,10.1C273.4,370.1,274,371.4,272.3,371.8z"/>
<path class="st14" d="M311.6,313c17.8-15.4,35.6-30.7,53.4-46.1c0.8,0.5,1.7,0.9,2,1.9c-18.3,15.9-36.6,31.7-54.9,47.6
	C311.2,315.4,311.7,314.2,311.6,313z"/>
<path class="st3" d="M542.6,125.6c19.9-12.7,39.8-25.5,59.7-38.2c7.2-4.6,14.4-9.2,21.6-13.8c0.8-0.5,2.1-0.7,1.6-2.4
	c-0.6-1.8-1.8-1.2-2.9-1c-5.1,0.7-10.2,1.5-15.5,1.7c41-22,82.1-44.1,123.1-66.1c0.1,0.2,0.3,0.4,0.4,0.6
	c-29.5,24.2-58.9,48.4-89.2,73.3c8-0.4,15.1-0.8,22.2-1.2c0.2,0.2,0.3,0.4,0.5,0.5c-29.5,25.5-59,51-89.2,77c8.3,0,15.9,0,23.4,0
	c0.1,0.3,0.2,0.5,0.4,0.8c-8.7,7.6-17.3,15.1-26,22.7c-0.8-1-0.4-2.1-0.4-3.2c0-9.6,0.1-19.3-0.1-28.9c-0.1-5.4,2.2-8.9,6.9-11.3
	c3.4-1.7,7-2.9,10.7-3c4-0.2,2.2-2.9,2.5-4.7c0.4-2.6-1.4-2.4-3.1-2.4c-14.4,0-28.7,0-43.1,0C545,126,543.7,126.4,542.6,125.6z"/>
<path class="st3" d="M574,369.4c35.4,25.1,70.8,50.2,107,75.9c-10.3,0-19.6,0-29.9,0c33.8,25.4,66.8,50.3,99.8,75.2
	c-0.1,0.2-0.2,0.3-0.3,0.5c-49-24.1-98-48.2-147-72.3c0-0.2,0.1-0.3,0.1-0.5c10.6,0,21.2,0,31.8,0c0.1-0.2,0.2-0.5,0.3-0.7
	c-23.7-14.7-47.4-29.5-71.1-44.2c1.1-0.8,2.3-0.4,3.5-0.5c10.4,0,20.8-0.1,31.2,0c2.5,0,2.9-0.8,3.1-3.1c0.3-3.9-1-6.1-4.3-8.1
	c-7.8-4.8-15.4-10-23.1-15.1c-0.9-0.6-2-0.9-2.5-2.1c-0.5-1.6-0.1-3.2-0.3-4.8C572.8,368.3,573.4,368.9,574,369.4z"/>
<path class="st12" d="M531.6,219.4c0.8,0.8,0.5,1.9,0.5,2.8c0.1,14,0.1,28,0.2,42c0.1,9.9,0.2,19.7,0.2,29.5c0,1.5,0.9,3.7-0.6,4.5
	c-1.9,1-3.8-0.1-5.6-1.5c-8.4-6.8-17-13.5-25.4-20.2c-6.1-4.8-12.1-9.7-18.2-14.6c2.8-4.2,7-6.9,10.6-10.1c10-8.8,20-17.7,30.2-26.3
	C526,223.3,527.9,220.2,531.6,219.4z"/>
<path class="st3" d="M572.7,369.1c0,1.7,0,3.5,0,5.2c-0.8-4.3-0.3-8.7-0.4-13c-0.1-5.1-0.1-10.3,0-15.4c0-1-0.6-2.3,0.9-2.8
	c11,8.6,21.9,17.2,32.6,25.6c-7.8,0-15.9,0-24,0C578.8,368.7,575.7,368.2,572.7,369.1z"/>
<path class="st14" d="M531.6,219.4c-15.7,13.8-31.4,27.5-47.1,41.3c-0.6,0.5-1.2,0.9-1.8,1.3c-0.7-0.6-1.3-1.1-2-1.7
	c17.1-14.9,34.1-29.8,51.2-44.7C532.1,216.9,532.1,218.1,531.6,219.4z"/>
<path class="st1" d="M427,294.6c-3.6,0-7.2-0.1-10.8,0c-1.7,0-2.6-0.3-2.6-2.3c0.1-7.4,0.1-14.9,0-22.3c0-1.8,0.5-2.6,2.4-2.5
	c7.5,0.3,15.1,0.5,22.6,0.9c2.8,0.2,4.5,2.2,5.7,4.5c2.6,4.8,3.4,9.9,1.9,15.2c-1.2,4.2-4.3,6.5-8.7,6.5
	C434,294.7,430.5,294.6,427,294.6z"/>
<path class="st1" d="M413.6,246.5c0-3,0.1-5.9,0-8.9c0-1.5,0.5-2.1,2.1-2.1c5,0,10.1-0.1,15.1,0.7c5.2,0.7,8.3,5.6,8,11.8
	c-0.3,5.5-3.8,9.5-9.1,9.8c-4.7,0.2-9.4,0.1-14.1,0.2c-1.8,0.1-2-0.9-1.9-2.2C413.6,252.6,413.6,249.6,413.6,246.5z"/>
<path class="st15" d="M384.6-122.4c0,4.1,0,8.3,0,12.4c0,1-0.5,2.5,1.2,2.5c1.4,0,3.2,0.9,4.2-0.9c3.2-5.8,8.1-10.1,13.1-14.2
	c14.7-12.2,23.4-27.8,27.9-46.2c1.3,0.9,1.7,2.4,2.5,3.6c11.2,17.9,23.1,35.4,33.2,54c9.2,17,16.7,34.8,20.1,53.9
	c2.4,13.2,1.5,25.8-7.5,36.7c-5.5,6.7-12.6,11.2-20.7,13.9c-0.7,0.2-1.5,0.9-2.1,0.1c-0.5-0.7,0.1-1.4,0.4-2.1
	c3.7-10.4,7.5-20.8,9.7-31.7c2.2-11,2.3-22-0.5-32.9c-0.2-0.6-0.4-1.2-1.1-3c-10,19.2-24.9,33.6-38.1,49.6c-2.7-3-4.6-6.6-6.1-10.3
	c-3.7-9-4.5-18.7-5.9-28.2c-0.7-4.7-1.5-9.3-2.5-13.9c-0.5-2.2-1.5-2.2-3.3-1.9c-1.7,0.3-3,0.5-2.5,3c1.3,6-0.8,11-5.1,15.2
	c-2.6,2.5-5.1,5.1-7.7,7.7c-7.7,7.5-9.3,16.8-7.7,27c0.2,1.1,0.6,2.1,0.1,3.6c-3.4-2.5-5.7-5.5-6.9-9.4c-1.2-3.9,0.1-7.8-0.4-12.3
	c-3.7,4.7-7.4,8.8-8.1,14.7c-0.7,5.5,0.9,10.8,1.7,17c-13.3-13.2-24.1-27-25.8-45.6c-0.7-8,2.6-15.2,6.8-21.9
	c6.2-9.8,14.3-18,21.5-27C378.6-113,382.1-117.1,384.6-122.4z"/>
<path class="st1" d="M572.7,369.1c3-1.7,6.1-0.5,9.1-0.4c-2.6,0.7-5.3-0.8-7.9,0.6C573.5,369.3,573.1,369.2,572.7,369.1z"/>
<path class="st12" d="M516.9,521c0,10.4-7.9,18.7-17.6,18.6c-10-0.1-17.7-8.5-17.7-19c0.1-10.3,8.1-18.5,17.9-18.4
	C509.4,502.4,517,510.5,516.9,521z"/>
<path class="st16" d="M473.1,595.7c-2.4,0.5-3-0.5-3-2.8c0-2.2,0.6-3.3,2.9-2.8c2,0.4,5.2-0.6,5.1,2.9
	C478,596.3,474.7,594.8,473.1,595.7z"/>
<path class="st17" d="M472.1,581.2c2.5,0.1,4.7-0.2,4.7,2.4c0,3.1-2.6,2.2-4.4,2.5c-2.4,0.4-2.1-1.1-2.3-2.7
	C469.9,581,471.2,581.1,472.1,581.2z"/>
<path class="st17" d="M638.1,590.8c-0.1,2.6-1.8,4.5-4.2,4.5c-2.6,0-4.2-1.9-4.1-4.9c0.1-2.6,1.9-4.4,4.3-4.3
	C636.5,586.1,638.2,588.2,638.1,590.8z"/>
<path class="st18" d="M716.4,589.4c-1-0.9-3.3,1.1-3.3-1.2c0-1.7,2.1-2.3,3.8-2.3c1.5,0,3.3,0.8,3.1,2.2
	C719.7,590.4,717.5,588.5,716.4,589.4z"/>
<path class="st18" d="M693,589.4c-0.9-0.8-3.1,0.9-3-1.2c0.1-1.7,2.1-2.3,3.8-2.3c1.5,0,3.3,0.8,3.1,2.2
	C696.6,590.5,694.3,588.5,693,589.4z"/>
<path class="st18" d="M349.6,589.4c-1.2-0.7-3.4,0.8-3.6-1c-0.2-1.8,1.9-2.4,3.6-2.5c1.7-0.1,3.5,0.6,3.3,2.3
	C352.8,590.4,350.6,588.6,349.6,589.4z"/>
<path class="st19" d="M124.7,592.1c1.1,0.3,2.7-0.4,2.5,1.4c-0.2,1.8-1.6,2.5-3.2,2.5c-1.4,0-2.8-0.1-2.6-2
	C121.6,591.8,123.6,592.5,124.7,592.1z"/>
<path class="st19" d="M508.8,592.1c1.1,0.3,2.7-0.5,2.6,1.3c-0.1,2-1.6,2.7-3.4,2.7c-1.2,0-2.5-0.2-2.5-1.9
	C505.6,591.8,507.6,592.5,508.8,592.1z"/>
<path class="st19" d="M222.9,592.1c1,0.2,2.6-0.5,2.4,1.3c-0.2,1.8-1.6,2.5-3.2,2.5c-1.4,0-2.8-0.2-2.6-2
	C219.7,591.8,221.6,592.4,222.9,592.1z"/>
<path class="st20" d="M176.2,595.9c-2.4,0-4.3-2.1-4.4-4.8c-0.1-2.8,2-5.1,4.5-5c2.5,0.1,4.5,2.3,4.4,5.2
	C180.6,593.9,178.7,595.9,176.2,595.9z"/>
<path class="st20" d="M426.7,591.1c0,2.7-1.9,4.7-4.4,4.8c-2.6,0-4.5-2.2-4.5-5c0.1-2.7,2-4.8,4.4-4.8
	C424.8,586,426.7,588.3,426.7,591.1z"/>
<path class="st20" d="M292,586c2.5,0,4.5,2.3,4.4,5.1c-0.1,2.7-2,4.7-4.4,4.7c-2.6,0-4.5-2.2-4.4-5.1C287.7,588.1,289.6,586,292,586
	z"/>
<path class="st4" d="M491.1,521.1c0-3.3,0.1-6.6,0-9.9c-0.1-1.9,0.5-2.8,2.5-2.8c3.4,0,6.8-0.5,10.1,0.5c2.5,0.8,4.2,2.3,4.6,5
	c0.4,2.6-0.2,4.9-2.5,6.3c-1.6,0.9-1.2,1.2-0.1,2.4c2.8,2.9,2,7,3.2,10.5c0.3,0.7-1,0.6-1.5,0.6c-1.1,0-2.5,0.5-2.9-1.3
	c-0.4-1.7-0.8-3.4-1.2-5.1c-0.7-3.2-3.8-5-6.9-4.4c-1.4,0.3-1,1.2-1,2c-0.1,2.3-0.1,4.6,0,6.9c0.1,1.4-0.4,2-1.8,1.9
	c-1.3-0.1-2.3,0-2.3-1.8C491.1,528.3,491.1,524.7,491.1,521.1z"/>
<path class="st12" d="M495.1,514.6c-0.1-1.3-0.6-3.5,2.8-3.3c3.6,0.2,6,1.7,6.1,4.2c0.1,2.8-2.4,4.4-6.8,4.4
	C495.1,519.9,495.1,519.9,495.1,514.6z"/>
</svg>
